<?xml version="1.0" encoding="UTF-8"?>
<svg width="40px" height="40px" viewBox="0 0 40 40" version="1.1" xmlns="http://www.w3.org/2000/svg" xmlns:xlink="http://www.w3.org/1999/xlink">
    <title>footer/elementos/icono/small/facebook</title>
    <g id="Responsivo" stroke="none" stroke-width="1" fill="none" fill-rule="evenodd">
        <g id="Landing-Page-Copy-27" transform="translate(-623.000000, -5205.000000)" fill="#DAD6C9">
            <g id="Group-11" transform="translate(623.000000, 5205.000000)">
                <path d="M20,0 C31.0456955,0 40,8.95430446 40,20 C40,31.0456955 31.0456955,40 20,40 C8.95430446,40 2.7000624e-13,31.0456955 2.7000624e-13,20 C2.7000624e-13,8.95430446 8.95430446,0 20,0 Z M26.1312923,9.23076923 L22.9448865,9.23076923 C19.1175006,9.23076923 17.7703601,11.0312805 17.7703601,14.0591744 L17.7703601,16.2875882 L15.3846154,16.2875882 L15.3846154,19.9991593 L17.7703601,19.9991593 L17.7703601,30.7692308 L22.5456836,30.7692308 L22.5456836,19.998739 L25.7316384,19.998739 L26.1538462,16.2871679 L22.5456836,16.2871679 L22.5510965,14.4294908 C22.5510965,13.4614559 22.6496568,12.9427607 24.1395631,12.9427607 L26.1312923,12.9427607 L26.1312923,9.23076923 Z" id="Combined-Shape"></path>
            </g>
        </g>
    </g>
</svg>