<?xml version="1.0" encoding="utf-8"?>
<!-- Generator: Adobe Illustrator 24.1.0, SVG Export Plug-In . SVG Version: 6.00 Build 0)  -->
<svg version="1.1" id="Capa_1" xmlns="http://www.w3.org/2000/svg" xmlns:xlink="http://www.w3.org/1999/xlink" x="0px" y="0px"
	 viewBox="0 0 217.1 240.8" style="enable-background:new 0 0 217.1 240.8;" xml:space="preserve">
<style type="text/css">
	.st0{fill:#D8D8D8;}
	.st1{fill:#D3C7B4;}
	.st2{fill:#B7B09C;}
	.st3{fill:#DCD7CC;}
	.st4{fill:#ECF0F1;}
	.st5{fill:#E0E2E2;}
	.st6{fill:#F9FAFB;}
	.st7{fill:#F9DBC2;}
	.st8{fill:#1C1D1E;}
	.st9{fill:url(#Path_18_);}
	.st10{fill:url(#Path_19_);}
	.st11{fill:url(#Path_20_);}
	.st12{fill:#915236;}
	.st13{fill:#713E23;}
	.st14{fill:url(#Path_21_);}
	.st15{fill:#EDEDED;}
	.st16{fill:none;}
</style>
<path id="_x32_" class="st0" d="M217.1,188v-32.4h-81.6c2.3-3.9,5.2-7.3,8.6-10.2s9.7-7.7,18.9-14.2l0,0l14.7-10.5
	c12.4-8.8,21.3-16.7,26.7-23.9c8.2-10.8,12.4-23.1,12.4-36.9c0-18.1-5.8-32.6-17.5-43.5C187.5,5.5,171.8,0,152,0
	c-25,0-42.4,9.3-52.2,28c-5.2,9.8-8,22.7-8.6,38.6l0,0h35.7c0.4-10.5,1.8-18.2,4.1-23c4-8.3,11.6-12.5,22.8-12.5
	c8.2,0,14.4,2.6,18.8,7.9s6.6,11.8,6.6,19.7c0,9.7-3.8,18.7-11.5,26.8c-5,5.2-15.9,13.9-32.9,26.1c-19.5,13.9-31.9,27.1-37.1,39.6
	c-5.4,11.1-8.3,23.4-8.6,36.8l0,0H217.1z"/>
<g id="Group" transform="translate(76.644860, 130.556075)">
	<polygon id="Path" class="st1" points="39.1,-4.4 39,41.2 -0.8,64.3 -0.7,18.7 	"/>
	<polygon id="Path_1_" class="st2" points="-0.7,18.7 -0.8,64.3 -40.9,41.2 -40.7,-4.4 	"/>
	<polygon id="Path_2_" class="st3" points="39.1,-4.4 -0.7,18.7 -40.7,-4.4 -0.9,-27.5 	"/>
</g>
<g id="Group_1_" transform="translate(40.271028, 94.831776)">
	<polygon id="Path_3_" class="st4" points="39.6,-4.8 39.4,40.8 -0.4,63.9 -0.2,18.3 	"/>
	<polygon id="Path_4_" class="st5" points="-0.2,18.3 -0.4,63.9 -40.4,40.8 -40.3,-4.8 	"/>
	<polygon id="Path_5_" class="st6" points="39.6,-4.8 -0.2,18.3 -40.3,-4.8 -0.5,-27.9 	"/>
</g>
<path id="Path_6_" class="st7" d="M34.1,153.2l2.1,0.3c0,0,1.4,0.5,1.5,0.6c0,0,0.8,0.1,1.1,0.1s0.4,0.8-0.1,1.2
	c-0.3,0.1-0.6,0.1-0.9-0.1c0,0,0.7,1.1,0.8,1.2c0.1,0,0.6,0.6,0.8,0.7s0.1,0.4-0.1,0.5c0,0,0.2,0,0.2,0.1s-0.1,0.5-0.4,0.5h-0.2
	c0,0.1,0,0.2-0.1,0.3c-0.1,0.1-0.2,0.2-0.4,0.2h-0.3c0,0,0,0.2-0.2,0.3c-0.2,0-0.9-0.5-1.3-0.7c-0.6-0.3-1.1-0.7-1.6-1.1
	c-0.3-0.3-0.6-0.9-0.6-0.9l-1.2-0.7L34.1,153.2z"/>
<polygon id="Path_7_" class="st8" points="11.4,192.9 14,192.9 15.7,192.4 18.7,193 21.1,192.2 21,190.6 16.3,189.9 11.5,189.8 "/>
<polygon id="Path_8_" class="st8" points="14.7,194.1 17.2,194.1 19,193.6 22,194.2 24.4,193.4 24.2,191.8 19.5,191.1 14.8,191.1 
	"/>
<linearGradient id="Path_18_" gradientUnits="userSpaceOnUse" x1="-188.9753" y1="506.5725" x2="-189.9753" y2="506.5725" gradientTransform="matrix(9.8339 0 0 -36.088 1875.3146 18454.5566)">
	<stop  offset="0" style="stop-color:#232525"/>
	<stop  offset="1" style="stop-color:#353636"/>
</linearGradient>
<polygon id="Path_9_" class="st9" points="7.5,155.3 7.1,159.4 9.3,169.9 8.4,176.8 11.4,191.4 15.1,190.9 16.9,159.1 "/>
<linearGradient id="Path_19_" gradientUnits="userSpaceOnUse" x1="-500.2721" y1="506.2923" x2="-499.2721" y2="506.2923" gradientTransform="matrix(13.6012 0 0 -34.685 2657.7495 17734.5273)">
	<stop  offset="0" style="stop-color:#232525"/>
	<stop  offset="1" style="stop-color:#353636"/>
</linearGradient>
<polygon id="Path_10_" class="st10" points="23.4,156.6 23.9,162.6 20,175.9 19.5,191.1 14.8,191.1 14.5,166.4 14.5,164.2 
	11.4,161.7 10.3,156.4 "/>
<linearGradient id="Path_20_" gradientUnits="userSpaceOnUse" x1="-411.1104" y1="504.7045" x2="-410.1104" y2="504.7045" gradientTransform="matrix(19.5055 0 0 -28.4235 3872.7585 14490.3799)">
	<stop  offset="0" style="stop-color:#232525"/>
	<stop  offset="1" style="stop-color:#353636"/>
</linearGradient>
<polygon id="Path_11_" class="st11" points="19.9,136.4 15.9,133 9.6,130.7 4.9,132.4 3.9,137.6 6.9,148.5 7.5,155.3 16.9,159.1 
	23.4,156.6 20.6,148.1 "/>
<polygon id="Path_12_" class="st7" points="17.7,123.2 18,124.4 17.8,124.9 18.2,125.8 17.2,130.5 16.6,130.8 16,130.8 14.4,128.4 
	14.2,125.7 16.6,124.4 "/>
<path id="Path_13_" class="st7" d="M16,130.2l0.1,3c-1,0.2-2,0.2-3.1,0.1c-1.2-0.4-2.3-1-3.3-1.6l0.3-3.1l5.1-0.5L16,130.2z"/>
<polygon id="Path_14_" class="st12" points="8.6,123.7 9.8,129.6 14.2,131.5 15.9,129.4 15.3,128 15.9,127.3 15.9,127.3 16.8,128.1 
	17.4,127.5 16.9,125.5 17.5,125 18.3,123.8 18,122.7 15,121.1 13.2,121.1 "/>
<polygon id="Path_15_" class="st13" points="8.6,123.7 9.8,129.6 14.2,131.5 15.9,129.4 15.3,128 15.9,127.3 15.7,126.3 "/>
<linearGradient id="Path_21_" gradientUnits="userSpaceOnUse" x1="-431.1007" y1="500.6187" x2="-430.1007" y2="500.6187" gradientTransform="matrix(17.8686 0 0 -19.408 3546.4287 9862.1201)">
	<stop  offset="0" style="stop-color:#232525"/>
	<stop  offset="1" style="stop-color:#353636"/>
</linearGradient>
<polygon id="Path_16_" class="st14" points="17,137.1 16.2,143.1 21.3,154.3 33.2,155.8 34.1,153.2 24.9,149.8 19.9,136.4 "/>
<polygon id="Path_17_" class="st15" points="196,217.3 157,240.8 76,194.8 115.7,171.7 "/>
<rect id="Rectangle" class="st16" width="217.1" height="240.8"/>
</svg>
