<?xml version="1.0" encoding="utf-8"?>
<!-- Generator: Adobe Illustrator 24.1.0, SVG Export Plug-In . SVG Version: 6.00 Build 0)  -->
<svg version="1.1" id="Capa_1" xmlns="http://www.w3.org/2000/svg" xmlns:xlink="http://www.w3.org/1999/xlink" x="0px" y="0px"
	 viewBox="0 0 273 253.6" style="enable-background:new 0 0 273 253.6;" xml:space="preserve">
<style type="text/css">
	.st0{fill:#D8D8D8;}
	.st1{fill-rule:evenodd;clip-rule:evenodd;fill:#2B2D2D;}
	.st2{fill:#B7B09C;}
	.st3{fill:#D3C7B4;}
	.st4{fill:#DCD7CC;}
	.st5{fill:#E0E2E2;}
	.st6{fill:#ECF0F1;}
	.st7{fill:#F9FAFB;}
	.st8{fill:#EDEDED;}
	.st9{fill:#F9DBC2;}
	.st10{fill:url(#Path_38_);}
	.st11{fill:url(#Path_39_);}
	.st12{fill:#1C1D1E;}
	.st13{fill:url(#Path_40_);}
	.st14{fill:#FFFFFF;}
	.st15{fill:url(#Path_41_);}
	.st16{fill:url(#Path_42_);}
	.st17{fill:#713E23;}
	.st18{fill:#915236;}
	.st19{fill:url(#Path_43_);}
	.st20{fill:#2B2D2D;}
	.st21{fill:#202121;}
	.st22{fill:#363838;}
	.st23{fill:url(#Path_44_);}
	.st24{fill:url(#Path_45_);}
	.st25{fill:url(#Path_46_);}
	.st26{fill:url(#Path_47_);}
	.st27{fill:none;}
</style>
<path id="_x33_" class="st0" d="M64,193.2c21.4,0,37.6-6,48.5-18.1s16.4-26,16.4-41.9c0-15.1-4.7-27-14-35.7
	c-6.3-5.8-11.1-8.7-14.4-8.7c4.5-1.7,8.7-5,12.9-9.7c6.5-7.6,9.8-16.9,9.8-28c0-15.6-5.5-28.1-16.4-37.3S81.5,0,63.6,0
	C54,0,45.9,1.2,39.3,3.5S27,9.2,22.2,13.6c-6.4,6.2-11.1,13-14.1,20.3c-2.8,8.4-4.4,17.2-4.8,26.5l0,0h34.2
	c-0.2-9.2,1.8-16.6,5.8-22.1c4.1-5.5,10.4-8.3,19.1-8.3c7.5,0,13.4,2.2,17.5,6.7c4.2,4.5,6.2,10.3,6.2,17.5c0,11-4.1,18.4-12.2,22
	c-4.7,2.2-13,3.3-24.9,3.5l0,0v26.4c12.2,0,21.1,1.2,26.7,3.5c9.9,4.1,14.9,12.4,14.9,24.7c0,9.3-2.7,16.5-8,21.4
	c-5.4,5-11.6,7.4-18.8,7.4c-11.7,0-19.8-4.5-24.3-13.6c-2.4-4.9-3.6-11.1-3.6-18.6l0,0H0c0.6,14.9,3.6,27,9,36.2
	C19.3,184.5,37.6,193.2,64,193.2z"/>
<g id="Group" transform="translate(28.579439, 131.205607)">
	<polygon id="Path-3" class="st1" points="89,25.6 89,9.4 80.4,4.6 49.3,24.4 16.6,5.4 9.5,9.4 9.5,23.4 45.3,42.3 45.3,75.6 
		49.1,77.7 53.9,74.9 53.9,41.8 	"/>
	<polygon id="Path" class="st2" points="80.5,-14.2 80.4,31.1 120.4,54.6 120.4,9.3 	"/>
	<polygon id="Path_1_" class="st3" points="120.4,9.3 120.4,54.6 160.6,31.5 160.5,-13.8 	"/>
	<polygon id="Path_2_" class="st4" points="80.6,-13.8 120.4,9.3 160.5,-13.8 120.7,-37 	"/>
</g>
<g id="Group_1_" transform="translate(100.028037, 84.439252)">
	<polygon id="Path_3_" class="st5" points="9.2,-13.8 9.3,31.7 49.1,54.9 49,9.3 	"/>
	<polygon id="Path_4_" class="st6" points="49,9.3 49.1,54.9 89.1,31.7 89,-13.8 	"/>
	<polygon id="Path_5_" class="st7" points="9.2,-13.8 49,9.3 89,-13.8 49.2,-37 	"/>
</g>
<path id="Path_6_" class="st8" d="M112,234.7c-2.1-1.2-4.5-1.9-6.9-2.2l10.4-6l-40-23.1l-1.8,1c-11.3-2.8-24.8-1.5-34,3.8
	c-12,7-12,18.3,0.1,25.3c4.7,2.7,10.5,4.4,16.6,5l19.2,11.1l12.6-7.3c0.8,1.7,2.1,3.1,3.8,4c5.5,3.2,14.4,3.2,19.9,0
	S117.5,237.9,112,234.7z"/>
<path id="Path_7_" class="st9" d="M60.3,171l1.9,0.6c0,0,1.6-0.1,1.7-0.1c0,0,0.9-0.1,1.1-0.1s0.6,0.8,0.1,1.3
	c-0.3,0.2-0.7,0.2-1,0.1l1.2,1c0.2,0.2,0.6,0.5,0.7,0.6c0.3,0.3,0.3,0.6,0.2,0.7c0,0,0.2,0.1,0.2,0.3c0,0.2-0.1,0.4-0.3,0.5
	c-0.1,0-0.1,0-0.2,0c0,0.1,0,0.2,0,0.3c0,0.1-0.2,0.2-0.3,0.2c-0.1,0-0.2,0-0.3-0.1c0,0,0.1,0.4-0.3,0.4c-0.5,0-1-0.2-1.4-0.4
	c-0.7-0.2-1.3-0.5-1.9-0.8c-0.3-0.3-0.6-0.6-0.8-0.9l-1.3-0.8L60.3,171z"/>
<linearGradient id="Path_38_" gradientUnits="userSpaceOnUse" x1="-153.261" y1="490.0657" x2="-152.261" y2="490.0657" gradientTransform="matrix(18.5377 0 0 -17.8037 2884.2407 8890.1875)">
	<stop  offset="0" style="stop-color:#232525"/>
	<stop  offset="1" style="stop-color:#353636"/>
</linearGradient>
<polygon id="Path_8_" class="st10" points="45.8,156.3 52.8,166.9 61.7,171.1 60.1,174.1 48.8,169.8 43.1,161.5 "/>
<linearGradient id="Path_39_" gradientUnits="userSpaceOnUse" x1="-131.6792" y1="495.9791" x2="-130.6792" y2="495.9791" gradientTransform="matrix(8.4829 0 0 -30.7554 1249.3219 15453.0225)">
	<stop  offset="0" style="stop-color:#232525"/>
	<stop  offset="1" style="stop-color:#353636"/>
</linearGradient>
<path id="Path_9_" class="st11" d="M45.6,183.6l-0.4,6.5l-2.3,24.3h-4.1c0,0,0-0.3,0-0.8c-0.1-2.6-0.5-10.6-0.5-11.8
	c0-0.9,0.2-1.8,0.4-2.6l0,0c0.1-0.2,0.1-0.3,0.1-0.4v0l-0.4-2.9l-1.4-9.4l5.1-2.1L45.6,183.6z"/>
<path id="Path_10_" class="st12" d="M31.8,219.2c0,0-0.2,3.1-0.2,3.7c0,0.6,1.9,2.2,1.9,2.2h2.3l0.4-2.3l-1-2.1v-1.5H31.8z"/>
<polygon id="Path_11_" class="st12" points="38.8,214.1 38.7,216.6 40.1,217.1 41.3,216.8 43,218.5 46.8,219.1 47.3,217.9 
	42.4,213.8 38.8,213.6 "/>
<linearGradient id="Path_40_" gradientUnits="userSpaceOnUse" x1="-140.0992" y1="496.9041" x2="-139.0981" y2="496.9041" gradientTransform="matrix(11.744 0 0 -34.7045 1771.2479 17447.4277)">
	<stop  offset="0" style="stop-color:#232525"/>
	<stop  offset="1" style="stop-color:#353636"/>
</linearGradient>
<path id="Path_12_" class="st13" d="M42.5,185.3l-1.4,2.9l-1.5,3.1c0,0-2,10.2-2.1,11.6c-0.1,1.4-2,17.1-2,17.1h-3.8
	c0,0-0.9-12.3-1-13.4c-0.1-1,1-4.7,1-4.7s-0.3-3.8-0.6-7.1c-0.2-2-0.3-3.8-0.4-4.4c0-1.5,0.1-3.1,0.4-4.5L42.5,185.3z"/>
<path id="Path_13_" class="st14" d="M32.6,158.7c2.9-1.5,10.1-3.8,10.1-3.8l3.1,1.4l-0.6,18.4l0.4,8.9c0,0-6.5,3.8-9.5,3.6
	c-1.7-0.2-3.3-0.7-4.8-1.5l1-8.7l-1.3-15.2C30.8,160.5,31.5,159.3,32.6,158.7L32.6,158.7z"/>
<linearGradient id="Path_41_" gradientUnits="userSpaceOnUse" x1="-141.8248" y1="495.8121" x2="-140.8248" y2="495.8121" gradientTransform="matrix(12.7491 0 0 -30.1365 1931.9941 15115.0791)">
	<stop  offset="0" style="stop-color:#232525"/>
	<stop  offset="1" style="stop-color:#353636"/>
</linearGradient>
<path id="Path_14_" class="st15" d="M34,158c0,0,7,5.6,7.4,9.5c0.4,3.9-1.2,18.1-2.4,20.6c0,0-7.9,0.2-10.3-0.9l3.1-9.3l-1.1-17.1
	c0-0.7,0.3-1.4,1-1.7L34,158z"/>
<linearGradient id="Path_42_" gradientUnits="userSpaceOnUse" x1="-135.1909" y1="495.8181" x2="-135.1909" y2="496.7379" gradientTransform="matrix(6.1576 0 0 -31.9245 876.7172 16013.6367)">
	<stop  offset="0" style="stop-color:#232525"/>
	<stop  offset="1" style="stop-color:#353636"/>
</linearGradient>
<path id="Path_15_" class="st16" d="M43,154.3l-1.8,0.4c0,0,2.7,8.4,3,9.7c0.2,1.2,0.3,21.8,0.3,21.8s2.5-1.5,2.9-3.5l-1.8-14.4
	l0.2-12.1L43,154.3z"/>
<path id="Path_16_" class="st9" d="M41.8,148.4c0,0,0.6,1.4,0.6,1.6c0,0.2,0,0.9,0,0.9l0.4,1l-0.3,4.1l-1.5,0.8l-3.9-1.6l-1.1-2.5
	v-4.6L41.8,148.4z"/>
<path id="Path_17_" class="st17" d="M42,147.8l-0.2,0.6l-4.2,1.4l-0.6,1.1l0.2,2.2l-0.5,0.1l-1,2.4h-0.2l-0.5-1.8l-2.5-1.1l-1.1-4.1
	l0.5-0.5l3.2-2.9c0,0,4.5,0.2,6.2,1.4l0.1,0.1l0.4,0.6L42,147.8z"/>
<polygon id="Path_18_" class="st18" points="37.5,149.8 36.9,150.9 37.1,153.1 36.7,153.1 35.6,155.6 35.4,155.6 34.9,153.7 
	32.4,152.7 31.3,148.6 "/>
<polygon id="Path_19_" class="st9" points="36.1,153.8 35.1,157.4 40.2,159.2 41.4,155.6 "/>
<path id="Path_20_" class="st9" d="M36.7,153.1c0,0-0.8-1.6-1.3-1.7s-0.7,0.6-0.6,1.3c0.1,0.4,0.3,0.7,0.7,0.9
	c0.1,0.3,0.2,0.5,0.4,0.7c0.3,0.2,0.9,0.1,1-0.2C36.8,153.8,36.8,153.5,36.7,153.1L36.7,153.1z"/>
<path id="Path_21_" class="st9" d="M35.7,184.9l0.8,1.1c0,0,0.4,1.5,0.5,1.7c0,0,0.2,0.9,0.3,1.1c0.1,0.2,0.9,0.3,1.3-0.3
	c0.1-0.3,0-0.7-0.2-0.9l1.3,0.8c0.3,0.1,0.6,0.4,0.8,0.5c0.4,0.2,0.6,0.1,0.7-0.1c0.1,0.1,0.2,0.1,0.3,0.1c0.2,0,0.4-0.2,0.4-0.4
	c0-0.1,0-0.1,0-0.2c0.1,0,0.2-0.1,0.3-0.1c0.1-0.1,0.2-0.2,0.1-0.3c0-0.1-0.1-0.2-0.1-0.2c0,0,0.4,0,0.3-0.4
	c-0.2-0.5-0.5-0.9-0.8-1.2c-0.4-0.6-0.9-1.1-1.4-1.6c-0.3-0.2-0.7-0.4-1.1-0.5l-1.2-0.9L35.7,184.9z"/>
<linearGradient id="Path_43_" gradientUnits="userSpaceOnUse" x1="-140.9362" y1="494.6718" x2="-139.9362" y2="494.6718" gradientTransform="matrix(12.2112 0 0 -26.4944 1842.8129 13278.5107)">
	<stop  offset="0" style="stop-color:#232525"/>
	<stop  offset="1" style="stop-color:#353636"/>
</linearGradient>
<polygon id="Path_22_" class="st19" points="32.6,159.2 30.8,160.4 26.6,175.5 26.9,177.1 35.6,185.7 38.8,183.1 32.4,175.9 
	36.6,164.7 "/>
<g id="Group_2_" transform="translate(28.579439, 154.588785)">
	<polygon id="Path_23_" class="st20" points="89,-13.9 88.9,31.7 49.1,54.8 49.2,9.2 	"/>
	<polygon id="Path_24_" class="st21" points="49.2,9.2 49.1,54.8 9.1,31.7 9.2,-13.9 	"/>
	<polygon id="Path_25_" class="st22" points="89,-13.9 49.2,9.2 9.2,-13.9 49,-37.1 	"/>
</g>
<path id="Path_26_" class="st9" d="M88.2,203l-2.1,0.3c0,0-1.4,0.5-1.5,0.6c0,0-0.8,0.1-1.1,0.1s-0.4,0.8,0.1,1.2
	c0.3,0.1,0.6,0.1,0.9-0.1c0,0-0.7,1.1-0.8,1.2c-0.1,0-0.6,0.6-0.8,0.7c-0.1,0.1-0.1,0.4,0.1,0.5c0,0-0.2,0-0.2,0.1s0.1,0.5,0.4,0.5
	h0.2c0,0.1,0,0.2,0.1,0.3c0.1,0.1,0.2,0.2,0.4,0.2h0.3c0,0,0,0.2,0.2,0.3s0.9-0.5,1.3-0.7c0.6-0.3,1.1-0.7,1.6-1.1
	c0.2-0.3,0.6-0.9,0.6-0.9l1.2-0.7L88.2,203z"/>
<polygon id="Path_27_" class="st12" points="110.9,242.7 108.4,242.7 106.6,242.2 103.6,242.8 101.2,242 101.3,240.4 106.1,239.7 
	110.8,239.6 "/>
<polygon id="Path_28_" class="st12" points="107.7,243.9 105.1,243.9 103.4,243.4 100.4,244 97.9,243.2 98.1,241.6 102.8,240.9 
	107.6,240.8 "/>
<linearGradient id="Path_44_" gradientUnits="userSpaceOnUse" x1="-145.5264" y1="497.1802" x2="-144.5264" y2="497.1802" gradientTransform="matrix(9.8339 0 0 -36.088 1536.481 18165.4023)">
	<stop  offset="0" style="stop-color:#232525"/>
	<stop  offset="1" style="stop-color:#353636"/>
</linearGradient>
<polygon id="Path_29_" class="st23" points="114.8,205.1 115.2,209.1 113,219.7 113.9,226.6 110.9,241.2 107.2,240.7 105.4,208.9 
	"/>
<linearGradient id="Path_45_" gradientUnits="userSpaceOnUse" x1="-150.0893" y1="496.9014" x2="-149.0893" y2="496.9014" gradientTransform="matrix(13.6012 0 0 -34.6915 2139.8628 17461.8301)">
	<stop  offset="0" style="stop-color:#232525"/>
	<stop  offset="1" style="stop-color:#353636"/>
</linearGradient>
<polygon id="Path_30_" class="st24" points="98.9,206.4 98.5,212.4 102.4,225.7 102.8,240.9 107.6,240.8 107.8,216.2 107.8,214 
	110.9,211.5 112.1,206.2 "/>
<linearGradient id="Path_46_" gradientUnits="userSpaceOnUse" x1="-153.6946" y1="495.3122" x2="-152.6946" y2="495.3122" gradientTransform="matrix(19.5055 0 0 -28.4236 3096.7673 14273.2188)">
	<stop  offset="0" style="stop-color:#232525"/>
	<stop  offset="1" style="stop-color:#353636"/>
</linearGradient>
<polygon id="Path_31_" class="st25" points="102.4,186.2 106.5,182.8 112.8,180.5 117.4,182.2 118.4,187.4 115.4,198.3 114.8,205.1 
	105.4,208.9 98.9,206.4 101.7,197.9 "/>
<polygon id="Path_32_" class="st9" points="104.7,173 104.4,174.2 104.5,174.7 104.1,175.6 105.1,180.3 105.7,180.6 106.4,180.6 
	107.9,178.2 108.1,175.5 105.7,174.2 "/>
<path id="Path_33_" class="st9" d="M106.4,180l-0.1,3c1,0.2,2,0.2,3.1,0.1c1.2-0.4,2.3-1,3.3-1.6l-0.3-3.1l-5.1-0.5L106.4,180z"/>
<polygon id="Path_34_" class="st18" points="113.7,173.5 112.5,179.4 108.1,181.3 106.4,179.2 107,177.8 106.5,177.1 106.4,177.1 
	105.6,177.9 104.9,177.3 105.5,175.3 104.9,174.8 104.1,173.6 104.4,172.5 107.4,170.9 109.2,170.9 "/>
<polygon id="Path_35_" class="st17" points="113.7,173.5 112.5,179.4 108.1,181.3 106.4,179.2 107,177.8 106.5,177.1 106.7,176.1 
	"/>
<linearGradient id="Path_47_" gradientUnits="userSpaceOnUse" x1="-152.9305" y1="491.2265" x2="-151.9305" y2="491.2265" gradientTransform="matrix(17.8621 0 0 -19.408 2819.9363 9729.6279)">
	<stop  offset="0" style="stop-color:#232525"/>
	<stop  offset="1" style="stop-color:#353636"/>
</linearGradient>
<polygon id="Path_36_" class="st26" points="105.4,186.9 106.1,192.9 101,204.1 89.1,205.6 88.3,203 97.5,199.6 102.4,186.2 "/>
<polygon id="Path_37_" class="st8" points="269,208.2 230,231.7 148.9,185.8 188.7,162.6 "/>
<rect id="Rectangle" class="st27" width="269" height="253.3"/>
</svg>
