<?xml version="1.0" encoding="utf-8"?>
<!-- Generator: Adobe Illustrator 24.1.0, SVG Export Plug-In . SVG Version: 6.00 Build 0)  -->
<svg version="1.1" id="Capa_1" xmlns="http://www.w3.org/2000/svg" xmlns:xlink="http://www.w3.org/1999/xlink" x="0px" y="0px"
	 viewBox="0 0 174 220.5" style="enable-background:new 0 0 174 220.5;" xml:space="preserve">
<style type="text/css">
	.st0{fill:#D8D8D8;}
	.st1{fill:#EDEDED;}
	.st2{fill:#D3C7B4;}
	.st3{fill:#B7B09C;}
	.st4{fill:#DCD7CC;}
	.st5{fill:#F9DBC2;}
	.st6{fill:url(#Path_16_);}
	.st7{fill:#1C1D1E;}
	.st8{fill:url(#Path_17_);}
	.st9{fill:url(#Path_18_);}
	.st10{fill:url(#Path_19_);}
	.st11{fill:#915236;}
	.st12{fill:#713E23;}
	.st13{fill:none;}
</style>
<g>
	<path id="_x31_" class="st0" d="M83,186V0H51.9c0,1.6-0.5,4.1-1.4,7.4c-1.7,5.6-4.1,10-7.3,13.3c-4.7,4.9-10.8,8.1-18.4,9.7
		c-4.7,1-13,1.8-24.8,2.3l0,0v24.9h44.7V186H83z"/>
	<polygon id="Path" class="st1" points="174,193.7 129.7,220.5 70,186.4 115.2,160.2 	"/>
	<g id="Group" transform="translate(82.606335, 134.235294)">
		<polygon id="Path_1_" class="st2" points="33.6,-25.5 33.5,26.3 -11.7,52.5 -11.6,0.8 		"/>
		<polygon id="Path_2_" class="st3" points="-11.6,0.8 -11.7,52.5 -57.2,26.3 -57,-25.5 		"/>
		<polygon id="Path_3_" class="st4" points="33.6,-25.5 -11.6,0.8 -57,-25.5 -11.9,-51.7 		"/>
	</g>
	<path id="Path_4_" class="st5" d="M109.7,139.9c-0.7-0.3-1.4-0.6-2.1-1c0,0-1.6-0.2-1.9-0.5c-0.1-0.2-0.2-0.4-0.1-0.6
		c0.1-0.2,0.2-0.4,0.5-0.4c0.6,0,1.2,0.1,1.7,0.3c0,0-2.7-3-3-3.7c-0.3-0.7,0.3-1.6,1.5-0.3s1.9,2.2,1.9,2.2s-2.5-3.3-2.2-3.9
		c0.3-0.6,0.6-0.4,0.9-0.1c0.3,0.3,2.1,3,2.1,3s-1.6-3-1.3-3.3c0.3-0.3,0.5-0.4,1.1,0.4c0.5,0.8,1,1.6,1.4,2.4l0.2,0.1
		c0,0-1-2.4-0.6-2.6s0.9,0.5,1.1,0.9c0.2,0.4,0.7,1.8,0.7,1.8s1.1,1.6,1.6,2.4c0.3,0.7,0.5,1.4,0.4,2.1l-2.6,1.8L109.7,139.9z"/>
	
		<linearGradient id="Path_16_" gradientUnits="userSpaceOnUse" x1="-198.171" y1="498.303" x2="-197.2369" y2="498.0438" gradientTransform="matrix(22.7831 0 0 -25.0622 4625.8867 12636.332)">
		<stop  offset="0" style="stop-color:#232525"/>
		<stop  offset="1" style="stop-color:#353636"/>
	</linearGradient>
	<path id="Path_5_" class="st6" d="M133.1,159.3c0,0-8.6-10.5-9.6-11.5c-1-1-10.1-9.8-10.1-9.8l-3.1,3l16.1,22.1L133.1,159.3z"/>
	<path id="Path_6_" class="st5" d="M102.6,144.7c0.5-0.6,0.9-1.2,1.3-1.9c0,0,1.3-1,1.4-1.5c0.1-0.5-0.4-0.9-0.8-0.7
		c-0.5,0.3-0.9,0.7-1.4,1.1c0,0,0.8-3.9,0.7-4.7c-0.1-0.8-1.1-1.2-1.4,0.5s-0.5,2.9-0.5,2.9s0.5-4.1-0.1-4.4c-0.6-0.3-0.7,0-0.8,0.4
		s-0.2,3.7-0.2,3.7s-0.1-3.3-0.5-3.5c-0.4-0.2-0.6-0.1-0.7,0.9c0,0.9,0,1.9,0.1,2.8l-0.1,0.1c0,0-0.3-2.6-0.8-2.6
		c-0.5-0.1-0.5,0.9-0.4,1.3c0.1,0.5,0.4,1.9,0.4,1.9s-0.2,2-0.2,2.9c0.1,0.7,0.3,1.4,0.7,2l3.7-0.3L102.6,144.7z"/>
	<polygon id="Path_7_" class="st7" points="157.6,209.1 158.9,210.3 158.7,212.3 157.3,213.4 156.9,215.2 152.8,217.2 151.9,216.4 
		154.2,214.2 154.3,211.9 155.9,209.1 	"/>
	<polygon id="Path_8_" class="st7" points="128.4,194.6 129,196.4 127.7,197.8 125.9,198.1 124.5,199.4 120.1,198.9 119.8,197.7 
		122.9,197.1 124.2,195.2 127.1,193.7 	"/>
	
		<linearGradient id="Path_17_" gradientUnits="userSpaceOnUse" x1="-201.1105" y1="500.8164" x2="-200.9742" y2="501.201" gradientTransform="matrix(47.3143 0 0 -35.8748 9646.8125 18167.7305)">
		<stop  offset="0" style="stop-color:#232525"/>
		<stop  offset="1" style="stop-color:#353636"/>
	</linearGradient>
	<path id="Path_9_" class="st8" d="M146.6,196.3c0,0-6.4-11.2-6.6-12.2c-0.5-1.6-1-3.1-1.7-4.6l-0.7,0.3l-23.6-2.6l-3.5,3.9
		l13.4,15.8l4.5-2.3l-5.7-7.8c0,0,5.8,0.8,8,0.6l9.3,13.2l14.5,12.3l3.3-3.7L146.6,196.3z"/>
	
		<linearGradient id="Path_18_" gradientUnits="userSpaceOnUse" x1="-197.8408" y1="498.8697" x2="-197.3332" y2="499.1663" gradientTransform="matrix(22.466 0 0 -27.7174 4566.3853 14001.4111)">
		<stop  offset="0" style="stop-color:#232525"/>
		<stop  offset="1" style="stop-color:#353636"/>
	</linearGradient>
	<path id="Path_10_" class="st9" d="M115.7,166.1l2.6-5.6l5.5-5.5l5.2-0.6l4.1,5l2.3,13l2.8,7.5l-10.2,2.3c-3-0.4-7.4-4.2-7.4-4.2
		l0.2-2.3L115.7,166.1z"/>
	
		<linearGradient id="Path_19_" gradientUnits="userSpaceOnUse" x1="-144.1099" y1="497.5553" x2="-142.9089" y2="497.5553" gradientTransform="matrix(19.1912 0 0 -23.4469 3879.2405 11822.7959)">
		<stop  offset="0" style="stop-color:#232525"/>
		<stop  offset="1" style="stop-color:#353636"/>
	</linearGradient>
	<path id="Path_11_" class="st10" d="M118,161.1l-7.8-7.9l-7.5-8.2l-3.8,1.1c0,0,5.8,10.7,6.7,12.2s11.4,10.1,11.4,10.1L118,161.1z"
		/>
	<polygon id="Path_12_" class="st5" points="113.5,153.7 113.7,154.7 114,155 114,155.9 116.4,159 117,159 117.5,158.8 117.8,156.4 
		117,154.3 114.7,154.2 	"/>
	<path id="Path_13_" class="st5" d="M117.3,158.3l1,2.3c0.8-0.2,1.6-0.6,2.3-1c0.7-0.7,1.4-1.5,1.9-2.4l-1.3-2.2l-4,1.4L117.3,158.3
		z"/>
	<polygon id="Path_14_" class="st11" points="120.5,150.9 121.7,155.7 119,158.6 117,157.7 117,156.4 116.3,156.1 116.3,156.1 
		115.9,157 115.2,156.8 114.9,155.1 114.3,155 113.3,154.4 113.1,153.4 114.8,151.2 116.1,150.5 	"/>
	<polygon id="Path_15_" class="st12" points="120.5,150.9 121.7,155.7 119,158.6 117,157.7 117,156.4 116.3,156.1 116.1,155.3 	"/>
	<rect id="Rectangle" x="0" class="st13" width="174" height="220.5"/>
</g>
</svg>
