<?xml version="1.0" encoding="UTF-8"?>
<svg width="40px" height="40px" viewBox="0 0 40 40" version="1.1" xmlns="http://www.w3.org/2000/svg" xmlns:xlink="http://www.w3.org/1999/xlink">
    <title>footer/elementos/icono/small/facebook copy</title>
    <g id="Responsivo" stroke="none" stroke-width="1" fill="none" fill-rule="evenodd">
        <g id="Landing-Page-Copy-27" transform="translate(-495.000000, -5205.000000)" fill="#DAD6C9">
            <g id="Twitter" transform="translate(495.000000, 5205.000000)">
                <path d="M20,0 C31.0456955,0 40,8.95430446 40,20 C40,31.0456955 31.0456955,40 20,40 C8.95430446,40 1.07631778e-12,31.0456955 1.07631778e-12,20 C1.07631778e-12,8.95430446 8.95430446,0 20,0 Z M23.4381972,12.9202818 C21.6318094,13.5702778 20.4901722,15.2458231 20.6202321,17.0802562 L20.6635855,17.7880296 L19.9410303,17.7013635 C17.3109296,17.3691433 15.0132042,16.2424836 13.0623053,14.350273 L12.1085325,13.4113899 L11.8628637,14.104719 C11.342624,15.650265 11.6749994,17.2824772 12.7588321,18.3802482 C13.3368762,18.9869111 13.2068163,19.0735773 12.2096902,18.7124684 C11.8628637,18.5969135 11.5593905,18.5102474 11.5304883,18.5535805 C11.4293306,18.654691 11.7761571,19.9691273 12.050728,20.4891241 C12.4264567,21.2113419 13.1923652,21.9191153 14.0305292,22.3380016 L14.7386332,22.6702218 L13.9004692,22.6846661 C13.0912075,22.6846661 13.0623053,22.6991105 13.1490119,23.002442 C13.4380339,23.9413251 14.5796711,24.9379856 15.8513681,25.3713163 L16.7473365,25.6746477 L15.966977,26.1368671 C14.8108887,26.8013075 13.452485,27.1768607 12.0940814,27.2057494 C11.4437817,27.2201938 10.9090909,27.2779712 10.9090909,27.3213043 C10.9090909,27.4657478 12.6721255,28.2746317 13.6981538,28.5924075 C16.7762387,29.5312906 20.4323678,29.1268487 23.1780774,27.5235252 C25.1289763,26.3824212 27.0798752,24.1146573 27.9902947,21.9191153 C28.4816322,20.7491225 28.9729697,18.6113579 28.9729697,17.5858087 C28.9729697,16.9213683 29.016323,16.8347022 29.8255848,16.0402626 C30.3024712,15.5780432 30.7504554,15.0724908 30.837162,14.9280472 C30.981673,14.6536045 30.9672219,14.6536045 30.2302157,14.8991585 C29.0018719,15.3324892 28.8284587,15.2747118 29.435405,14.6247158 C29.8833892,14.1624964 30.41808,13.3247238 30.41808,13.0791697 C30.41808,13.0358367 30.2013135,13.1080585 29.9556447,13.2380577 C29.6955248,13.3825012 29.1174807,13.5991665 28.6839476,13.7291657 L27.9035881,13.9747198 L27.195484,13.4980561 C26.8053042,13.2380577 26.2561623,12.9491705 25.9671403,12.8625044 C25.230134,12.6602834 24.102948,12.6891721 23.4381972,12.9202818 Z" id="Combined-Shape"></path>
            </g>
        </g>
    </g>
</svg>