<?xml version="1.0" encoding="UTF-8"?>
<svg width="40px" height="40px" viewBox="0 0 40 40" version="1.1" xmlns="http://www.w3.org/2000/svg" xmlns:xlink="http://www.w3.org/1999/xlink">
    <title>footer/elementos/icono/small/facebook copy 2</title>
    <g id="Responsivo" stroke="none" stroke-width="1" fill="none" fill-rule="evenodd">
        <g id="Landing-Page-Copy-27" transform="translate(-751.000000, -5205.000000)" fill="#DAD6C9">
            <g id="Group-27" transform="translate(751.000000, 5205.000000)">
                <path d="M0,20 C0,8.95430446 8.95430446,0 20,0 C31.0456955,0 40,8.95430446 40,20 C40,31.0456955 31.0456955,40 20,40 C8.95430446,40 0,31.0456955 0,20 Z M19.0347259,23.0246361 L19.0341537,17.8701108 L23.9811618,20.4562596 L19.0347259,23.0246361 Z M29.8968589,16.976912 C29.8968589,16.976912 29.7177688,15.712789 29.1690548,15.1561161 C28.4727202,14.4251609 27.6922762,14.4217211 27.334668,14.3792972 C24.7724772,14.1935484 20.9291908,14.1935484 20.9291908,14.1935484 L20.9211804,14.1935484 C20.9211804,14.1935484 17.0778941,14.1935484 14.5157032,14.3792972 C14.1575228,14.4217211 13.377651,14.4251609 12.6807442,15.1561161 C12.1320303,15.712789 11.9535123,16.976912 11.9535123,16.976912 C11.9535123,16.976912 11.7704169,18.4617545 11.7704169,19.9460239 L11.7704169,21.3379924 C11.7704169,22.8228349 11.9535123,24.3071044 11.9535123,24.3071044 C11.9535123,24.3071044 12.1320303,25.5712273 12.6807442,26.1278998 C13.377651,26.8588554 14.2925557,26.8359233 14.6999429,26.9121723 C16.1647059,27.0532034 20.9251856,27.0967742 20.9251856,27.0967742 C20.9251856,27.0967742 24.7724772,27.0910414 27.334668,26.9052926 C27.6922762,26.8622953 28.4727202,26.8588554 29.1690548,26.1278998 C29.7177688,25.5712273 29.8968589,24.3071044 29.8968589,24.3071044 C29.8968589,24.3071044 30.0799543,22.8228349 30.0799543,21.3379924 L30.0799543,19.9460239 C30.0799543,18.4617545 29.8968589,16.976912 29.8968589,16.976912 L29.8968589,16.976912 Z" id="Combined-Shape"></path>
            </g>
        </g>
    </g>
</svg>